<?xml version="1.0" encoding="UTF-8" standalone="no"?>
<!-- Uploaded to: SVG Repo, www.svgrepo.com, Transformed by: SVG Repo Mixer Tools -->

<svg
   width="900"
   height="900"
   viewBox="0 0 22.5 22.5"
   version="1.1"
   fill="#ffffff"
   id="svg1"
   sodipodi:docname="file_explorer_icon.svg"
   xml:space="preserve"
   inkscape:export-filename="scan_folder.png"
   inkscape:export-xdpi="96"
   inkscape:export-ydpi="96"
   xmlns:inkscape="http://www.inkscape.org/namespaces/inkscape"
   xmlns:sodipodi="http://sodipodi.sourceforge.net/DTD/sodipodi-0.dtd"
   xmlns="http://www.w3.org/2000/svg"
   xmlns:svg="http://www.w3.org/2000/svg"><defs
     id="defs2" /><sodipodi:namedview
     id="namedview1"
     pagecolor="#000000"
     bordercolor="#000000"
     borderopacity="0.25"
     inkscape:showpageshadow="2"
     inkscape:pageopacity="0.0"
     inkscape:pagecheckerboard="0"
     inkscape:deskcolor="#d1d1d1"
     inkscape:zoom="0.65986356"
     inkscape:cx="513.74257"
     inkscape:cy="559.20651"
     inkscape:window-width="1916"
     inkscape:window-height="1031"
     inkscape:window-x="0"
     inkscape:window-y="0"
     inkscape:window-maximized="0"
     inkscape:current-layer="svg1"><inkscape:page
       x="0"
       y="0"
       width="22.5"
       height="22.5"
       id="page2"
       margin="0"
       bleed="0" /></sodipodi:namedview><path
     d="M 2.9880859,1.25 C 2.0277809,1.25 1.25,2.0277809 1.25,2.9880859 V 16.892969 c 0,0.960305 0.7777809,1.738135 1.7380859,1.738135 h 9.2825191 c -0.144613,-0.113814 -0.284143,-0.236792 -0.417724,-0.368848 -0.961499,-0.949418 -1.446235,-2.202295 -1.445166,-3.447266 -0.0015,-1.243892 0.483618,-2.497092 1.445117,-3.446533 0.961151,-0.95013 2.229825,-1.4286413 3.489453,-1.4279297 1.174109,-6.631e-4 2.355514,0.4148117 3.288819,1.2402837 V 6.4643066 c 0,-0.960305 -0.77783,-1.7380859 -1.738135,-1.7380859 h -6.08335 c -0.479718,0 -0.8690917,-0.389325 -0.8690917,-0.869043 V 2.9880859 C 9.9405273,2.0277809 9.1627464,1.25 8.2024414,1.25 Z"
     id="path9" /><g
     style="fill:#000000"
     id="g2"
     transform="matrix(-0.02135492,0,0,0.02135492,21.823433,10.35044)"><g
       id="SVGRepo_bgCarrier-7"
       stroke-width="0" /><g
       id="SVGRepo_tracerCarrier-5"
       stroke-linecap="round"
       stroke-linejoin="round" /><g
       id="SVGRepo_iconCarrier-3"> <style
   type="text/css"
   id="style1">  .st0{fill:#ffffff;}  </style> <g
   id="g1"> <path
   class="st0"
   d="M 449.803,62.197 C 408.443,20.807 353.85,-0.037 299.646,-0.006 245.428,-0.037 190.85,20.807 149.49,62.197 108.1,103.557 87.24,158.15 87.303,212.338 87.256,250.197 97.662,288.104 117.85,321.697 L 15.021,424.525 c -20.016,20.016 -20.016,52.453 0,72.469 20,20.016 52.453,20.016 72.453,0 L 190.318,394.15 c 33.578,20.203 71.5,30.594 109.328,30.547 54.203,0.047 108.797,-20.797 150.156,-62.188 41.375,-41.359 62.234,-95.938 62.188,-150.172 0.063,-54.187 -20.812,-108.78 -62.187,-150.14 z m -57.985,242.344 c -25.547,25.531 -58.672,38.125 -92.172,38.188 -33.5,-0.063 -66.609,-12.656 -92.188,-38.188 -25.531,-25.578 -38.125,-58.688 -38.188,-92.203 0.063,-33.484 12.656,-66.609 38.188,-92.172 25.578,-25.531 58.688,-38.125 92.188,-38.188 33.5,0.063 66.625,12.656 92.188,38.188 25.531,25.563 38.125,58.688 38.188,92.172 -0.063,33.516 -12.657,66.625 -38.204,92.203 z"
   id="path1" /> </g> </g></g></svg>
